<svg xmlns="http://www.w3.org/2000/svg" width="288.511" height="288.511" viewBox="369.245 654.245 288.511 288.511"><g data-name="w3c (1)"><path d="M386.73 753.915a4.354 4.354 0 0 0-4.354 4.355v83.944a4.354 4.354 0 1 0 8.708 0V758.27a4.354 4.354 0 0 0-4.354-4.355Z" fill="#dedde0" fill-rule="evenodd" data-name="Path 26"/><path d="M404.216 894.67h8.743V824.73h-8.743c-19.315 0-34.971 15.656-34.971 34.97 0 19.26 15.603 34.971 34.97 34.971Z" fill="#724aa1" fill-rule="evenodd" data-name="Path 27"/><path d="M605.3 894.67h-8.743V824.73h8.742c19.314 0 34.972 15.656 34.972 34.97-.001 19.26-15.605 34.971-34.972 34.971Z" fill="#724aa1" fill-rule="evenodd" data-name="Path 28"/><path d="M614.044 859.698c0 45.744-37.064 83.057-83.057 83.057h-52.46c-45.866 0-83.052-37.185-83.052-83.057 0-60.188 48.763-109.281 109.282-109.281 24.076 0 46.382 7.802 64.472 21.04 27.142 19.856 44.815 51.932 44.815 88.241Z" fill="#9778af" fill-rule="evenodd" data-name="Path 29"/><path d="M569.23 771.457h-8.407c-2.311 0-4.529.917-6.16 2.548l-21.923 21.928c-5.487 5.486-14.868 1.597-14.868-6.16v-9.609a8.709 8.709 0 0 0-8.71-8.709h-8.911a34.696 34.696 0 0 1-20.25-6.49c-4.668-3.35-11.246-1.138-13.168 4.278-14.328 40.364-22.31 110.294 47.66 173.512h-35.966c-45.866 0-83.052-37.185-83.052-83.057 0-60.188 48.763-109.281 109.282-109.281 24.076 0 46.382 7.802 64.472 21.04Z" fill="#8259a5" fill-rule="evenodd" data-name="Path 30"/><path d="M587.813 859.698c0 28.89-23.403 52.455-52.454 52.455H474.16c-28.977 0-52.46-23.484-52.46-52.455 0-23.212 15.106-42.98 36.116-49.86a52.387 52.387 0 0 1 16.344-2.594h61.198c28.97 0 52.454 23.484 52.454 52.454Z" fill="#f4f4f5" fill-rule="evenodd" data-name="Path 31"/><path d="M486.684 912.153H474.16c-28.977 0-52.46-23.484-52.46-52.455 0-23.212 15.106-42.98 36.116-49.86-2.787 30.202 2.706 66.401 28.867 102.315Z" fill="#dedde0" fill-rule="evenodd" data-name="Path 32"/><path d="M657.755 684.516v44.373c0 16.714-13.55 30.271-30.27 30.271h-66.662c-2.311 0-4.529.917-6.16 2.549l-20.617 20.61c-2.74 2.746-7.431.801-7.431-3.077v-11.374a8.709 8.709 0 0 0-8.709-8.709h-9.133c-19.118 0-34.614-15.5-34.614-34.62v-40.023c0-16.72 13.55-30.271 30.266-30.271h123.06c16.72 0 30.27 13.55 30.27 30.27Z" fill="#b4e9f1" fill-rule="evenodd" data-name="Path 33"/><path d="M568.643 759.16h-7.82c-2.311 0-4.529.918-6.16 2.55l-20.617 20.61c-2.74 2.746-7.431.801-7.431-3.078V767.87a8.709 8.709 0 0 0-8.709-8.709h-9.133c-19.118 0-34.614-15.501-34.614-34.62v-40.024c0-16.721 13.55-30.271 30.266-30.271h41.18c-8.203 15.38-17.294 70.917 23.038 104.916Z" fill="#81d8e7" fill-rule="evenodd" data-name="Path 34"/><path d="M373.616 763.429a13.114 13.114 0 1 1 0 .1z" fill="#5972a5" fill-rule="evenodd" data-name="Ellipse 6"/><path d="M552.842 706.601a13.114 13.114 0 1 1 0 .1z" fill="#7888af" fill-rule="evenodd" data-name="Ellipse 7"/><path d="M605.299 706.601a13.114 13.114 0 1 1 0 .1z" fill="#7888af" fill-rule="evenodd" data-name="Ellipse 8"/><path d="M500.386 706.601a13.114 13.114 0 1 1 0 .1z" fill="#5972a5" fill-rule="evenodd" data-name="Ellipse 9"/><path d="M474.422 865.482c.004 7.802-7.935 14.13-17.732 14.135-9.796.005-17.741-6.315-17.745-14.117-.004-7.801 7.934-14.13 17.731-14.135 9.797-.005 17.742 6.316 17.746 14.117Z" fill="#ffa1ac" fill-rule="evenodd" data-name="Path 35"/><path d="M535.093 865.452c.004 7.802 7.949 14.122 17.746 14.117 9.796-.005 17.735-6.333 17.731-14.135-.003-7.802-7.948-14.122-17.745-14.117-9.797.005-17.736 6.333-17.732 14.135Z" fill="#ffa1ac" fill-rule="evenodd" data-name="Path 36"/><g data-name="Group 69"><path d="M522.142 859.072c-.006-10.746-7.79-11.752-17.394-11.747-9.603.005-17.387 1.019-17.382 11.765.006 10.745 7.795 19.453 17.398 19.448 9.603-.005 17.383-8.72 17.378-19.466Z" fill="#495560" fill-rule="evenodd" data-name="Path 37"/><path d="M458.57 854.473a4.354 4.354 0 0 1-4.354-4.353c-.003-7.072 5.717-12.8 12.79-12.803 7.051-.004 12.8 5.728 12.805 12.79a4.354 4.354 0 1 1-8.709.005c-.001-3.654-4.43-5.442-6.981-2.888a4.064 4.064 0 0 0-1.196 2.892 4.354 4.354 0 0 1-4.355 4.357Z" fill="#495560" fill-rule="evenodd" data-name="Path 38"/><path d="M534.042 854.435a4.354 4.354 0 0 1-4.354-4.352c-.003-7.057 5.735-12.8 12.792-12.804 7.071-.004 12.8 5.717 12.803 12.791a4.354 4.354 0 1 1-8.708.004 4.087 4.087 0 0 0-4.089-4.086 4.094 4.094 0 0 0-4.088 4.09 4.356 4.356 0 0 1-4.356 4.357Z" fill="#495560" fill-rule="evenodd" data-name="Path 39"/></g></g></svg>